<svg width="37" height="36" viewBox="0 0 37 36" fill="none" xmlns="http://www.w3.org/2000/svg">
<path d="M18.4985 11.0654C16.659 11.0654 14.8948 11.7962 13.594 13.0969C12.2933 14.3977 11.5625 16.1619 11.5625 18.0014C11.5625 19.841 12.2933 21.6052 13.594 22.9059C14.8948 24.2067 16.659 24.9374 18.4985 24.9374C20.338 24.9374 22.1022 24.2067 23.403 22.9059C24.7037 21.6052 25.4345 19.841 25.4345 18.0014C25.4345 16.1619 24.7037 14.3977 23.403 13.0969C22.1022 11.7962 20.338 11.0654 18.4985 11.0654ZM18.4985 22.5059C17.3034 22.5059 16.1573 22.0312 15.3123 21.1862C14.4672 20.3411 13.9925 19.195 13.9925 17.9999C13.9925 16.8049 14.4672 15.6587 15.3123 14.8137C16.1573 13.9687 17.3034 13.4939 18.4985 13.4939C19.6936 13.4939 20.8397 13.9687 21.6847 14.8137C22.5298 15.6587 23.0045 16.8049 23.0045 17.9999C23.0045 19.195 22.5298 20.3411 21.6847 21.1862C20.8397 22.0312 19.6936 22.5059 18.4985 22.5059Z" fill="white" fill-opacity="0.78"/>
<path d="M25.709 12.4275C26.602 12.4275 27.326 11.7035 27.326 10.8105C27.326 9.91744 26.602 9.19348 25.709 9.19348C24.816 9.19348 24.092 9.91744 24.092 10.8105C24.092 11.7035 24.816 12.4275 25.709 12.4275Z" fill="white" fill-opacity="0.78"/>
<path d="M31.2995 9.16645C30.9523 8.26972 30.4216 7.45537 29.7415 6.77553C29.0614 6.0957 28.2469 5.56535 27.35 5.21845C26.3005 4.82448 25.1918 4.61146 24.071 4.58845C22.6265 4.52545 22.169 4.50745 18.506 4.50745C14.843 4.50745 14.3735 4.50745 12.941 4.58845C11.8211 4.61028 10.7131 4.82335 9.66501 5.21845C8.76791 5.56495 7.95315 6.09515 7.27301 6.77504C6.59286 7.45493 6.06235 8.26948 5.71551 9.16645C5.32146 10.2159 5.10893 11.3247 5.08701 12.4454C5.02251 13.8884 5.00301 14.3459 5.00301 18.0104C5.00301 21.6734 5.00301 22.1399 5.08701 23.5754C5.10951 24.6974 5.32101 25.8044 5.71551 26.8559C6.06332 27.7526 6.59435 28.5668 7.27466 29.2466C7.95497 29.9264 8.7696 30.4568 9.66651 30.8039C10.7127 31.2137 11.8211 31.442 12.944 31.4789C14.3885 31.5419 14.846 31.5614 18.509 31.5614C22.172 31.5614 22.6415 31.5614 24.074 31.4789C25.1947 31.4562 26.3034 31.2437 27.353 30.8505C28.2496 30.5027 29.0639 29.9719 29.744 29.2919C30.424 28.6119 30.9548 27.7976 31.3025 26.9009C31.697 25.851 31.9085 24.7439 31.931 23.622C31.9955 22.1789 32.015 21.7214 32.015 18.0569C32.015 14.3924 32.015 13.9274 31.931 12.4919C31.9135 11.3554 31.6999 10.2303 31.2995 9.16645ZM29.4725 23.4644C29.4628 24.3289 29.305 25.1853 29.006 25.9964C28.7807 26.5798 28.4359 27.1094 27.9936 27.5515C27.5513 27.9935 27.0214 28.338 26.438 28.5629C25.6358 28.8606 24.7885 29.0184 23.933 29.0294C22.508 29.0954 22.106 29.1119 18.452 29.1119C14.795 29.1119 14.4215 29.1119 12.9695 29.0294C12.1144 29.019 11.2675 28.8612 10.466 28.5629C9.88054 28.3394 9.34851 27.9955 8.90434 27.5534C8.46017 27.1113 8.11376 26.5809 7.88751 25.9964C7.59268 25.194 7.43497 24.3477 7.42101 23.4929C7.35651 22.0679 7.34151 21.6659 7.34151 18.0119C7.34151 14.3564 7.34151 13.9829 7.42101 12.5294C7.4307 11.6655 7.58849 10.8096 7.88751 9.99895C8.34501 8.81545 9.28251 7.88395 10.466 7.43095C11.2679 7.13416 12.1145 6.97639 12.9695 6.96445C14.396 6.89995 14.7965 6.88195 18.452 6.88195C22.1075 6.88195 22.4825 6.88195 23.933 6.96445C24.7886 6.97474 25.636 7.13255 26.438 7.43095C27.0214 7.65636 27.5512 8.00125 27.9935 8.44349C28.4357 8.88573 28.7806 9.41555 29.006 9.99895C29.3008 10.8014 29.4585 11.6477 29.4725 12.5024C29.537 13.9289 29.5535 14.3294 29.5535 17.9849C29.5535 21.6389 29.5535 22.0319 29.489 23.466H29.4725V23.4644Z" fill="white" fill-opacity="0.78"/>
</svg>
