<svg width="39" height="38" viewBox="0 0 39 38" fill="none" xmlns="http://www.w3.org/2000/svg">
<rect x="0.5" width="38" height="38" rx="8" fill="#FF6E30"/>
<path fill-rule="evenodd" clip-rule="evenodd" d="M20.4645 12.4359C20.132 12.4359 19.8089 12.4769 19.5 12.5542C19.6988 10.7606 20.4148 9.12398 21.4963 7.79492C25.7971 8.30464 29.1332 11.9646 29.1332 16.4029V22.7294C28.9605 22.7391 28.7864 22.744 28.6112 22.744C25.1706 22.744 22.1709 20.8483 20.6028 18.0423H24.4315V16.4029C24.4315 14.212 22.6554 12.4359 20.4645 12.4359Z" fill="white"/>
<path fill-rule="evenodd" clip-rule="evenodd" d="M9.75642 16.9507C9.75642 11.625 14.0738 7.30762 19.3995 7.30762C22.0623 7.30762 24.4731 8.38695 26.2182 10.132C24.6095 8.52336 22.4351 7.48044 20.0191 7.32724C18.394 9.12575 17.4044 11.5095 17.4044 14.1243C17.4044 14.3194 17.4099 14.5131 17.4208 14.7055C16.799 15.2538 16.4068 16.0565 16.4068 16.9507V17.6157H22.3922L18.0214 17.6158C19.4445 21.4968 23.172 24.2661 27.5462 24.2661C28.0546 24.2661 28.5543 24.2287 29.0425 24.1565V28.2563H22.3922V24.2661H16.4068V28.2563H9.75642V20.9409V16.9507Z" fill="white"/>
</svg>
