<svg aria-hidden="true" style="position:absolute;width:0;height:0;overflow:hidden" xmlns="http://www.w3.org/2000/svg">
  <defs>
    <symbol id="logo" viewBox="0 0 33 32">
      <path fill="#ff6e30" style="fill:var(--color1, #ff6e30)" d="M7.158 0h18.526a6.737 6.737 0 0 1 6.737 6.737v18.526A6.737 6.737 0 0 1 25.684 32H7.158a6.737 6.737 0 0 1-6.737-6.737V6.737A6.737 6.737 0 0 1 7.158 0z"/>
      <path fill="#fff" style="fill:var(--color2, #fff)" d="M17.233 10.472c-.28 0-.552.035-.812.1a7.676 7.676 0 0 1 1.681-4.008 7.3 7.3 0 0 1 6.431 7.249v5.328a7.719 7.719 0 0 1-7.184-3.947h3.224v-1.381a3.341 3.341 0 0 0-3.341-3.341z"/>
      <path fill="#fff" style="fill:var(--color2, #fff)" d="M8.216 14.274a8.12 8.12 0 0 1 13.863-5.742 8.094 8.094 0 0 0-5.22-2.362 8.508 8.508 0 0 0-2.188 6.213 2.514 2.514 0 0 0-.854 1.891v.56h1.36a8.543 8.543 0 0 0 9.281 5.508v3.452h-5.6v-3.36h-5.04v3.36h-5.6v-9.521z"/>
    </symbol>
    <symbol id="search" viewBox="0 0 33 32">
      <path stroke-linejoin="round" stroke-linecap="round" stroke-width="2.667" d="M15.333 25.333C21.224 25.333 26 20.557 26 14.666S21.224 3.999 15.333 3.999 4.666 8.775 4.666 14.666s4.776 10.667 10.667 10.667zM28.667 28l-5.8-5.8"/>
    </symbol>
    <symbol id="facebook" viewBox="0 0 33 32">
      <path d="M18.333 27.996V17.068h3.687l.548-4.279h-4.235v-2.725c0-1.235.344-2.08 2.116-2.08h2.245V4.169A29.634 29.634 0 0 0 19.405 4c-3.259 0-5.496 1.989-5.496 5.641v3.14h-3.663v4.279h3.671v10.936h4.416z"/>
    </symbol>
    <symbol id="instagram" viewBox="0 0 33 32">
      <path d="M16.443 9.836a6.17 6.17 0 0 0-6.166 6.166 6.17 6.17 0 0 0 6.166 6.166 6.163 6.163 0 0 0 6.166-6.166 6.167 6.167 0 0 0-6.166-6.166zm0 10.169a4.006 4.006 0 1 1 0-8.011 4.006 4.006 0 0 1 0 8.011zM22.852 11.047a1.437 1.437 0 1 0 0-2.874 1.437 1.437 0 0 0 0 2.874z"/>
      <path d="M27.822 8.148a6.135 6.135 0 0 0-3.511-3.509 8.8 8.8 0 0 0-2.915-.56c-1.284-.056-1.691-.072-4.947-.072s-3.673 0-4.947.072a8.737 8.737 0 0 0-2.912.56 6.123 6.123 0 0 0-3.51 3.51 8.799 8.799 0 0 0-.559 2.915c-.057 1.283-.075 1.689-.075 4.947 0 3.256 0 3.671.075 4.947a8.79 8.79 0 0 0 .559 2.916 6.138 6.138 0 0 0 3.512 3.509 8.79 8.79 0 0 0 2.913.6c1.284.056 1.691.073 4.947.073s3.673 0 4.947-.073a8.804 8.804 0 0 0 2.915-.559 6.15 6.15 0 0 0 3.51-3.51 8.769 8.769 0 0 0 .559-2.915c.057-1.283.075-1.689.075-4.947s0-3.671-.075-4.947a8.787 8.787 0 0 0-.561-2.956zm-1.624 12.709a6.733 6.733 0 0 1-.415 2.251 3.977 3.977 0 0 1-2.283 2.281 6.641 6.641 0 0 1-2.227.415c-1.267.059-1.624.073-4.872.073-3.251 0-3.583 0-4.873-.073a6.58 6.58 0 0 1-2.225-.415 3.988 3.988 0 0 1-2.292-2.281 6.786 6.786 0 0 1-.415-2.225c-.057-1.267-.071-1.624-.071-4.872 0-3.249 0-3.581.071-4.873a6.717 6.717 0 0 1 .415-2.249 3.984 3.984 0 0 1 2.292-2.283 6.684 6.684 0 0 1 2.225-.415c1.268-.057 1.624-.073 4.873-.073s3.583 0 4.872.073a6.592 6.592 0 0 1 2.227.415 3.99 3.99 0 0 1 2.283 2.283c.262.713.402 1.466.415 2.225.057 1.268.072 1.624.072 4.873 0 3.248 0 3.597-.057 4.872h-.015v-.001z"/>
    </symbol>
    <symbol id="twitter" viewBox="0 0 33 32">
      <path d="M26.622 10.663c.017.233.017.465.017.697 0 7.1-5.404 15.281-15.28 15.281-3.043 0-5.869-.881-8.248-2.412.432.049.848.067 1.297.067a10.755 10.755 0 0 0 6.668-2.295 5.379 5.379 0 0 1-5.023-3.724c.332.049.665.083 1.015.083.481 0 .965-.067 1.415-.183a5.371 5.371 0 0 1-4.307-5.271v-.067a5.412 5.412 0 0 0 2.427.681 5.37 5.37 0 0 1-1.664-7.181 15.286 15.286 0 0 0 11.074 5.62 6.082 6.082 0 0 1-.133-1.231 5.374 5.374 0 0 1 1.572-3.799 5.369 5.369 0 0 1 3.799-1.572c1.547 0 2.943.648 3.924 1.696a10.601 10.601 0 0 0 3.408-1.297 5.362 5.362 0 0 1-2.361 2.96 10.774 10.774 0 0 0 3.092-.832 11.528 11.528 0 0 1-2.692 2.777z"/>
    </symbol>
    <symbol id="figma" viewBox="0 0 32 32">
      <path fill="#19bcfe" style="fill:var(--color3, #19bcfe)" opacity=".78" d="M21.333 21.333a5.333 5.333 0 1 0 0-10.667 5.333 5.333 0 0 0 0 10.667z"/>
      <path fill="#09cf83" style="fill:var(--color4, #09cf83)" opacity=".78" d="M10.667 32A5.332 5.332 0 0 0 16 26.667v-5.333h-5.333a5.332 5.332 0 1 0 0 10.666z"/>
      <path fill="#a259ff" style="fill:var(--color5, #a259ff)" opacity=".78" d="M10.667 21.333H16V10.666h-5.333a5.332 5.332 0 1 0 0 10.666z"/>
      <path fill="#f24e1e" style="fill:var(--color6, #f24e1e)" opacity=".78" d="M10.667 10.667H16V0h-5.333a5.332 5.332 0 1 0 0 10.666z"/>
      <path fill="#ff7262" style="fill:var(--color7, #ff7262)" opacity=".78" d="M21.333 10.667H16V0h5.333a5.334 5.334 0 0 1 0 10.666z"/>
    </symbol>
    <symbol id="sketch" viewBox="0 0 36 32">
      <path fill="#fdb300" style="fill:var(--color8, #fdb300)" d="M17.965 0 7.839 1.051 0 11.384l17.965 20.541L35.93 11.384 28.091 1.051 17.965 0z"/>
      <path fill="#eb6c00" style="fill:var(--color9, #eb6c00)" d="m0 11.384 17.965 20.541L7.277 11.384H0zM28.653 11.384 17.965 31.925 35.93 11.384h-7.277z"/>
      <path fill="#fdad00" style="fill:var(--color10, #fdad00)" d="m7.277 11.384 10.688 20.541 10.688-20.541H7.276z"/>
      <path fill="#fdd231" style="fill:var(--color11, #fdd231)" d="m7.839 1.051-.563 10.333L17.964 0 7.838 1.051zM28.653 11.384l-.562-10.333L17.965 0l10.688 11.384z"/>
      <path fill="#fdad00" style="fill:var(--color10, #fdad00)" d="M28.653 11.384h7.277L28.091 1.051l.563 10.333zM0 11.384h7.277L7.84 1.051.001 11.384z"/>
      <path fill="#feeeb7" style="fill:var(--color12, #feeeb7)" d="M17.965 0 7.277 11.384h21.377L17.966 0z"/>
    </symbol>
    <symbol id="vscode" viewBox="0 0 33 32">
      <path fill="#0065a9" style="fill:var(--color13, #0065a9)" opacity=".78" d="M31.744 3.377 24.968.198a2.088 2.088 0 0 0-2.337.387L.448 20.293a1.312 1.312 0 0 0 .002 1.975l1.812 1.605a1.396 1.396 0 0 0 1.75.076L30.725 4.202c.896-.662 2.183-.04 2.183 1.056v-.077c0-.377-.109-.746-.315-1.066s-.5-.575-.849-.739z"/>
      <path fill="#007acc" style="fill:var(--color14, #007acc)" opacity=".78" d="m31.744 28.503-6.776 3.179a2.096 2.096 0 0 1-2.337-.387L.448 11.587A1.312 1.312 0 0 1 .45 9.612l1.812-1.605a1.396 1.396 0 0 1 1.75-.076l26.713 19.747c.896.662 2.183.04 2.183-1.057v.077c0 .377-.109.746-.315 1.066s-.5.575-.849.739z"/>
      <path fill="#1f9cf0" style="fill:var(--color15, #1f9cf0)" opacity=".78" d="M24.946 31.685c-.383.179-.813.238-1.232.169s-.805-.264-1.105-.557c.758.739 2.056.216 2.056-.83V1.416c0-1.045-1.297-1.569-2.056-.83.3-.293.687-.487 1.105-.557s.849-.01 1.232.169l6.775 3.175c.349.163.643.42.849.739s.315.689.315 1.066v21.526a2 2 0 0 1-1.165 1.805l-6.775 3.175z"/>
      <path style="fill:var(--color16, #000)" opacity=".195" d="M23.321 31.744a2.078 2.078 0 0 0 1.631-.061l6.771-3.175c.349-.164.643-.42.849-.739s.315-.689.315-1.066V5.177c0-.377-.109-.747-.315-1.066s-.5-.575-.849-.739L24.952.197c-.383-.179-.813-.238-1.231-.169s-.805.264-1.105.557L9.654 12.108 4.008 7.932a1.395 1.395 0 0 0-1.748.076L.449 9.613a1.314 1.314 0 0 0-.002 1.975l4.897 4.353-4.897 4.353a1.313 1.313 0 0 0 .002 1.975l1.811 1.605a1.398 1.398 0 0 0 1.749.076l5.646-4.176 12.962 11.523c.2.196.44.348.705.449zm1.35-23.079-9.835 7.275 9.835 7.275V8.665z"/>
    </symbol>
    <symbol id="notion" viewBox="0 0 32 32">
      <path fill="#fff" style="fill:var(--color2, #fff)" opacity=".78" d="m5.716 29.218-3.439-4.285A5.751 5.751 0 0 1 1 21.33V5.815c0-1.954 1.564-3.576 3.581-3.714l15.951-1.089a5.199 5.199 0 0 1 3.263.873L29.4 5.674a3.59 3.59 0 0 1 1.601 2.97v17.639c0 1.913-1.537 3.496-3.512 3.618l-17.704 1.09c-1.576.097-3.099-.567-4.067-1.773z"/>
      <path style="fill:var(--color16, #000)" opacity=".78" d="M11.248 13.579v-.203c0-.515.412-.942.944-.977l3.871-.258 5.354 7.884v-6.919l-1.378-.184v-.097c0-.521.422-.951.96-.978l3.523-.18v.507a.494.494 0 0 1-.419.482l-.848.143v11.206l-1.064.366c-.889.306-1.878-.022-2.387-.789l-5.198-7.843v7.486l1.6.306-.022.148c-.07.465-.471.816-.957.838l-3.979.177c-.053-.5.322-.947.839-1.001l.523-.055v-9.981l-1.362-.077z"/>
      <path style="fill:var(--color16, #000)" opacity=".78" d="M20.675 2.967 4.724 4.056c-.955.065-1.696.833-1.696 1.759V21.33c0 .87.299 1.715.851 2.402l3.439 4.285a2.776 2.776 0 0 0 2.337 1.018l17.704-1.09c.907-.056 1.614-.783 1.614-1.662V8.644c0-.544-.275-1.053-.735-1.365L22.633 3.49a3.117 3.117 0 0 0-1.958-.523zm-15.16 3.09c-.222-.164-.116-.506.162-.526l15.105-1.083c.481-.035.959.098 1.349.374l3.031 2.147c.115.082.061.258-.081.265l-15.996.87a2.079 2.079 0 0 1-1.347-.401L5.515 6.057zm2.819 4.774c0-.52.42-.949.957-.978l16.913-.921c.523-.028.964.374.964.88v15.273c0 .519-.418.948-.954.978l-16.806.956c-.582.033-1.073-.414-1.073-.978V10.83z"/>
    </symbol>
    <symbol id="slack" viewBox="0 0 33 32">
      <path fill="#e01e5a" style="fill:var(--color17, #e01e5a)" opacity=".78" d="M6.836 20.11c0 .439-.088.874-.259 1.28s-.422.774-.738 1.085c-.316.311-.692.557-1.105.724s-.856.254-1.304.253c-.447 0-.89-.086-1.303-.254s-.788-.414-1.104-.725c-.316-.31-.567-.679-.738-1.085s-.259-.84-.258-1.279a3.296 3.296 0 0 1 .996-2.365c.316-.311.692-.557 1.105-.725s.856-.254 1.303-.254h3.406v3.343h-.001zm1.702 0a3.296 3.296 0 0 1 .996-2.365c.316-.311.692-.557 1.105-.725a3.46 3.46 0 0 1 3.711.725c.316.31.567.679.738 1.085s.259.841.258 1.28v8.358a3.296 3.296 0 0 1-.996 2.365 3.402 3.402 0 0 1-1.105.725 3.46 3.46 0 0 1-3.711-.725c-.316-.31-.567-.679-.738-1.085s-.259-.841-.258-1.28V20.11z"/>
      <path fill="#36c5f0" style="fill:var(--color18, #36c5f0)" opacity=".78" d="M11.942 6.687c-.447 0-.89-.086-1.304-.254s-.789-.414-1.105-.725c-.316-.311-.567-.679-.738-1.085s-.259-.841-.258-1.28A3.314 3.314 0 0 1 9.533.978a3.418 3.418 0 0 1 2.408-.979c.447 0 .89.086 1.303.254s.789.414 1.105.725c.316.31.567.679.738 1.085s.259.841.258 1.28v3.345l-3.404-.001zm0 1.696c.447 0 .89.086 1.303.254s.789.414 1.105.725c.316.31.567.679.738 1.085s.259.841.258 1.28a3.296 3.296 0 0 1-.996 2.365 3.418 3.418 0 0 1-2.408.979H3.404a3.426 3.426 0 0 1-2.408-.978c-.316-.31-.567-.679-.738-1.084a3.289 3.289 0 0 1-.001-2.559c.171-.406.422-.774.738-1.085s.692-.557 1.105-.725a3.46 3.46 0 0 1 1.303-.254l8.538-.001z"/>
      <path fill="#2eb67d" style="fill:var(--color19, #2eb67d)" opacity=".78" d="M25.587 11.726c0-.439.087-.874.259-1.28a3.36 3.36 0 0 1 1.843-1.809 3.46 3.46 0 0 1 1.304-.253c.447 0 .89.086 1.303.254s.789.414 1.105.725c.316.31.567.679.738 1.085s.259.841.258 1.28a3.296 3.296 0 0 1-.996 2.365 3.418 3.418 0 0 1-2.408.979h-3.406v-3.343zm-1.702 0a3.296 3.296 0 0 1-.996 2.365 3.418 3.418 0 0 1-2.408.979c-.447.001-.89-.086-1.304-.253s-.789-.414-1.105-.724c-.316-.31-.567-.679-.738-1.085s-.259-.841-.259-1.28V3.345c0-.439.087-.874.259-1.28A3.36 3.36 0 0 1 19.177.256a3.46 3.46 0 0 1 1.304-.253c.447 0 .89.086 1.303.254s.789.414 1.105.725c.316.31.567.679.738 1.085s.259.841.258 1.28v8.383z"/>
      <path fill="#ecb22e" style="fill:var(--color20, #ecb22e)" opacity=".78" d="M20.48 25.124c.447 0 .89.086 1.303.254s.789.414 1.105.725c.316.311.567.679.738 1.085s.259.841.258 1.28c.001.439-.087.874-.258 1.28s-.422.775-.738 1.085c-.316.311-.692.557-1.105.725a3.46 3.46 0 0 1-3.713-.725c-.316-.311-.567-.679-.738-1.085s-.259-.841-.258-1.28v-3.343h3.404zm0-1.672c-.447 0-.89-.086-1.303-.254s-.789-.414-1.105-.725c-.316-.311-.567-.679-.738-1.085s-.259-.841-.258-1.28a3.296 3.296 0 0 1 .996-2.365c.316-.311.692-.557 1.105-.725s.856-.254 1.303-.254h8.538c.447 0 .89.086 1.303.254s.789.414 1.105.725c.316.31.567.679.738 1.085s.259.841.258 1.28a3.296 3.296 0 0 1-.996 2.365 3.418 3.418 0 0 1-2.408.979H20.48z"/>
    </symbol>
    <symbol id="invision" viewBox="0 0 33 32">
      <path fill="#f06" style="fill:var(--color21, #f06)" opacity=".78" d="M0 2a2 2 0 0 1 2-2h28.5a2 2 0 0 1 2 2v27.912a2 2 0 0 1-2 2H2a2 2 0 0 1-2-2V2z"/>
      <path fill="#fff" style="fill:var(--color2, #fff)" opacity=".78" d="M11.059 10.269c1.028-.015 1.851-.842 1.841-1.852s-.849-1.821-1.877-1.816-1.859.824-1.859 1.834c.001.243.051.483.147.707s.236.427.412.598.385.305.614.396c.229.091.475.136.722.134zM7.129 20.089a6.154 6.154 0 0 0-.168 1.377c0 1.615.892 2.687 2.787 2.687 1.572 0 2.847-.916 3.764-2.397l-.56 2.208h3.12l1.785-7.021c.446-1.779 1.309-2.702 2.619-2.702 1.031 0 1.672.629 1.672 1.67.005.333-.042.666-.139.985l-.919 3.228a4.768 4.768 0 0 0-.195 1.368c0 1.532.919 2.655 2.842 2.655 1.645 0 2.955-1.039 3.679-3.529l-1.226-.466c-.614 1.67-1.143 1.971-1.56 1.971s-.642-.273-.642-.821c.012-.287.059-.572.139-.849l.893-3.146a6.824 6.824 0 0 0 .307-1.995c0-2.354-1.45-3.582-3.206-3.582-1.645 0-3.316 1.456-4.152 2.989l.612-2.752h-4.765l-.669 2.425h2.231l-1.373 5.392c-1.079 2.354-3.06 2.392-3.309 2.337-.408-.091-.668-.243-.668-.766.012-.424.077-.844.195-1.252l2.09-8.143H7.019l-.668 2.425h2.201l-1.424 5.702z"/>
    </symbol>
    <symbol id="microsoft" viewBox="0 0 147 32">
      <path fill="#fff" style="fill:var(--color2, #fff)" opacity=".2" d="M147.012 14.381v-2.619h-3.211V7.691l-.108.034-3.075.953v3.085h-4.76v-1.718c0-.8.177-1.413.525-1.821.345-.404.84-.609 1.47-.609.453 0 .923.108 1.395.322l.119.053V5.232l-.056-.021c-.441-.161-1.041-.241-1.784-.241-.936 0-1.787.207-2.53.616s-1.326.994-1.736 1.738c-.408.743-.614 1.601-.614 2.55v1.889h-2.236v2.619h2.236v11.032h3.209V14.382h4.76v7.011c0 2.888 1.345 4.351 3.996 4.351a6.5 6.5 0 0 0 1.363-.153c.477-.104.801-.208.992-.319l.043-.025v-2.643l-.131.087a2.207 2.207 0 0 1-.645.285 2.41 2.41 0 0 1-.634.109c-.621 0-1.08-.17-1.366-.504-.289-.337-.434-.928-.434-1.754v-6.445h3.211zm-23.766 8.704c-1.164 0-2.083-.392-2.73-1.162-.651-.775-.981-1.879-.981-3.282 0-1.447.33-2.58.981-3.369.648-.783 1.557-1.181 2.704-1.181 1.113 0 1.999.38 2.633 1.129.638.753.962 1.877.962 3.342 0 1.482-.305 2.621-.904 3.383-.597.756-1.493 1.14-2.664 1.14zm.143-11.651c-2.222 0-3.988.659-5.246 1.96s-1.896 3.101-1.896 5.352c0 2.137.622 3.857 1.851 5.109s2.898 1.888 4.965 1.888c2.155 0 3.885-.669 5.143-1.988s1.895-3.101 1.895-5.299c0-2.171-.598-3.903-1.778-5.147-1.181-1.245-2.841-1.876-4.935-1.876zm-12.316 0c-1.512 0-2.762.392-3.717 1.164-.961.777-1.448 1.796-1.448 3.029 0 .641.105 1.21.312 1.693a3.4 3.4 0 0 0 .959 1.269c.425.355 1.081.727 1.95 1.106.731.305 1.276.562 1.622.765.339.199.579.399.715.594.132.191.199.451.199.774 0 .917-.678 1.363-2.073 1.363-.517 0-1.108-.109-1.755-.325a6.581 6.581 0 0 1-1.797-.923l-.133-.097v3.13l.049.023c.454.212 1.027.391 1.701.532s1.285.213 1.817.213c1.64 0 2.962-.394 3.925-1.171.97-.782 1.462-1.825 1.462-3.101 0-.92-.265-1.709-.786-2.346-.518-.631-1.417-1.211-2.672-1.723-.999-.406-1.639-.743-1.903-1.002-.254-.25-.384-.604-.384-1.051 0-.397.16-.715.488-.973.33-.259.789-.391 1.365-.391.535 0 1.082.085 1.626.253s1.022.392 1.42.667l.131.091v-2.969l-.05-.022c-.368-.16-.853-.296-1.442-.407a8.7 8.7 0 0 0-1.581-.165zM97.541 23.085c-1.165 0-2.083-.391-2.731-1.162-.651-.775-.981-1.879-.981-3.282 0-1.447.33-2.58.981-3.369.647-.783 1.557-1.181 2.704-1.181 1.112 0 1.998.38 2.633 1.129.637.753.961 1.877.961 3.342 0 1.482-.304 2.621-.904 3.383-.596.756-1.492 1.14-2.664 1.14zm.143-11.651c-2.223 0-3.989.659-5.246 1.96s-1.896 3.101-1.896 5.352c0 2.138.623 3.857 1.851 5.109s2.899 1.888 4.966 1.888c2.154 0 3.884-.669 5.142-1.988s1.896-3.101 1.896-5.299c0-2.171-.598-3.903-1.778-5.147s-2.841-1.876-4.934-1.876zM85.67 14.127v-2.364H82.5v13.651h3.17v-6.983c0-1.188.266-2.163.79-2.9.518-.728 1.208-1.097 2.05-1.097.286 0 .606.047.953.142.344.094.593.195.74.303l.133.098V11.74l-.051-.022c-.296-.127-.713-.191-1.242-.191-.796 0-1.509.259-2.12.77-.536.449-.923 1.064-1.22 1.831h-.034zm-8.847-2.693c-1.455 0-2.752.316-3.856.938a6.28 6.28 0 0 0-2.542 2.648c-.579 1.131-.873 2.451-.873 3.923 0 1.29.285 2.473.848 3.517a6.006 6.006 0 0 0 2.372 2.429c1.009.566 2.175.854 3.466.854 1.506 0 2.793-.305 3.824-.907l.042-.024V21.87l-.133.099a5.954 5.954 0 0 1-1.551.818c-.56.198-1.071.298-1.519.298-1.243 0-2.242-.395-2.967-1.172-.727-.778-1.095-1.871-1.095-3.247 0-1.384.384-2.505 1.141-3.332.754-.824 1.755-1.243 2.973-1.243 1.042 0 2.057.357 3.018 1.063l.133.098v-3.1l-.043-.025c-.361-.205-.854-.374-1.467-.502a8.65 8.65 0 0 0-1.772-.193h.001zm-9.455.329h-3.17v13.651h3.17V11.763zm-1.553-5.816a1.9 1.9 0 0 0-1.351.536 1.784 1.784 0 0 0-.566 1.339c0 .523.188.965.56 1.313.369.347.826.523 1.356.523s.989-.176 1.363-.523c.376-.348.567-.79.567-1.313 0-.513-.186-.959-.552-1.325s-.829-.551-1.378-.551zm-7.909 4.808v14.658h3.235V6.365h-4.477l-5.692 14.148-5.523-14.148h-4.66v19.048h3.04v-14.66h.105l5.833 14.659h2.294l5.741-14.658h.105zM14.914 15.106H0V0h14.914v15.106zM31.38 15.106H16.467V0H31.38v15.106zM14.913 31.791H0V16.685h14.913v15.106zM31.38 31.791H16.467V16.685H31.38v15.106z"/>
    </symbol>
    <symbol id="google" viewBox="0 0 99 32">
      <path fill="#fff" style="fill:var(--color2, #fff)" opacity=".2" d="m95.442 19.557 2.733 1.804c-.887 1.293-3.009 3.512-6.677 3.512-4.554 0-7.946-3.489-7.946-7.926 0-4.723 3.428-7.926 7.563-7.926 4.159 0 6.197 3.275 6.856 5.043l.36.902-10.715 4.39c.814 1.59 2.086 2.397 3.883 2.397 1.798 0 3.044-.878 3.944-2.195zm-8.402-2.86 7.155-2.943c-.396-.985-1.57-1.685-2.973-1.685-1.786 0-4.267 1.566-4.183 4.628zM78.386.939h3.452v23.209h-3.452V.939zM72.944 9.637h3.332v14.097c0 5.85-3.487 8.259-7.611 8.259-3.883 0-6.22-2.587-7.095-4.687l3.056-1.258c.551 1.293 1.882 2.824 4.039 2.824 2.649 0 4.279-1.626 4.279-4.663V23.07h-.12c-.791.949-2.302 1.803-4.219 1.803-4.003 0-7.671-3.453-7.671-7.902 0-4.474 3.668-7.962 7.671-7.962 1.906 0 3.428.842 4.219 1.768h.12V9.638zm.24 7.333c0-2.8-1.882-4.841-4.279-4.841-2.421 0-4.459 2.041-4.459 4.841 0 2.765 2.038 4.77 4.459 4.77 2.397.012 4.279-2.005 4.279-4.77zM41.985 16.911c0 4.568-3.596 7.926-8.006 7.926s-8.006-3.37-8.006-7.926c0-4.592 3.596-7.938 8.006-7.938s8.006 3.346 8.006 7.938zm-3.5 0c0-2.848-2.086-4.806-4.507-4.806s-4.507 1.958-4.507 4.806c0 2.824 2.086 4.806 4.507 4.806s4.507-1.982 4.507-4.806zM59.472 16.946c0 4.568-3.596 7.926-8.006 7.926s-8.006-3.358-8.006-7.926c0-4.592 3.596-7.926 8.006-7.926s8.006 3.322 8.006 7.926zm-3.512 0c0-2.848-2.085-4.806-4.507-4.806s-4.507 1.958-4.507 4.806c0 2.824 2.086 4.806 4.507 4.806 2.433 0 4.507-1.994 4.507-4.806zM12.812 21.396c-5.022 0-8.953-4.011-8.953-8.982s3.931-8.982 8.953-8.982c2.709 0 4.686 1.056 6.149 2.409l2.409-2.385C19.332 1.522 16.612.05 12.812.05 5.932.05.143 5.604.143 12.414s5.789 12.364 12.669 12.364c3.716 0 6.52-1.21 8.714-3.465 2.253-2.231 2.948-5.363 2.948-7.903 0-.795-.096-1.614-.204-2.219H12.812v3.299h8.162c-.24 2.065-.899 3.477-1.87 4.438-1.175 1.175-3.032 2.468-6.292 2.468z"/>
    </symbol>
    <symbol id="slack2" viewBox="0 0 127 32">
      <path fill="#fff" style="fill:var(--color2, #fff)" opacity=".2" d="m40.481 25.079 1.58-3.652c1.708 1.268 3.977 1.927 6.22 1.927 1.657 0 2.702-.634 2.702-1.598-.026-2.688-9.916-.583-9.993-7.329-.025-3.423 3.034-6.061 7.367-6.061 2.575 0 5.149.634 6.985 2.079l-1.479 3.728c-1.682-1.065-3.773-1.826-5.761-1.826-1.351 0-2.243.634-2.243 1.445.026 2.637 9.993 1.192 10.095 7.633 0 3.5-2.982 5.959-7.265 5.959-3.136 0-6.016-.736-8.208-2.308zm60.645-4.97 4.359 2.409a9.512 9.512 0 0 1-8.336 4.869c-5.277 0-9.559-4.26-9.559-9.509s4.283-9.509 9.559-9.509a9.593 9.593 0 0 1 8.336 4.869l-4.359 2.409a4.591 4.591 0 0 0-3.977-2.307c-2.523 0-4.563 2.029-4.563 4.539s2.04 4.539 4.563 4.539a4.59 4.59 0 0 0 3.977-2.308h.001zM58.147.482h5.455v26.55h-5.455V.482zm49.479 0h5.456v15.595l6.169-7.329h6.679l-7.622 8.825 8.234 9.459h-6.984l-6.475-7.962v7.962h-5.456V.482zM79.815 20.16v-4.489c-.79-1.319-2.422-2.333-4.257-2.333-2.524 0-4.563 2.029-4.563 4.539s2.039 4.539 4.563 4.539c1.835 0 3.466-.964 4.257-2.257zm0-11.411h5.456v18.258h-5.456v-2.155c-.892 1.496-3.11 2.536-5.43 2.536-4.793 0-8.566-4.26-8.566-9.535s3.773-9.484 8.566-9.484c2.32 0 4.537 1.04 5.43 2.536V8.749zM6.755 20.134a3.353 3.353 0 0 1-3.365 3.347 3.384 3.384 0 0 1-2.38-.98 3.338 3.338 0 0 1-.984-2.368 3.353 3.353 0 0 1 3.365-3.347h3.365v3.347zm1.683 0c0-1.851 1.504-3.347 3.365-3.347s3.365 1.496 3.365 3.347v8.368a3.353 3.353 0 0 1-3.365 3.347 3.384 3.384 0 0 1-2.38-.98 3.338 3.338 0 0 1-.984-2.367v-8.368zM11.803 6.695a3.384 3.384 0 0 1-2.38-.98 3.338 3.338 0 0 1-.984-2.367c0-1.851 1.504-3.347 3.365-3.347s3.365 1.496 3.365 3.347v3.347h-3.365zm0 1.699c1.861 0 3.365 1.496 3.365 3.347s-1.504 3.347-3.365 3.347H3.365a3.384 3.384 0 0 1-2.38-.98 3.338 3.338 0 0 1-.984-2.367 3.353 3.353 0 0 1 3.365-3.347h8.438zM25.288 11.741c0-1.851 1.504-3.347 3.365-3.347s3.365 1.496 3.365 3.347-1.504 3.347-3.365 3.347h-3.365v-3.347zm-1.683 0a3.353 3.353 0 0 1-3.365 3.347 3.384 3.384 0 0 1-2.38-.98 3.338 3.338 0 0 1-.984-2.367V3.347C16.876 1.496 18.38 0 20.241 0s3.365 1.496 3.365 3.347v8.394zM20.24 25.155c1.861 0 3.365 1.496 3.365 3.347s-1.504 3.347-3.365 3.347a3.384 3.384 0 0 1-2.38-.98 3.332 3.332 0 0 1-.984-2.368v-3.347h3.365zm0-1.673a3.384 3.384 0 0 1-2.38-.98 3.338 3.338 0 0 1-.984-2.367 3.353 3.353 0 0 1 3.365-3.347h8.438c1.861 0 3.365 1.496 3.365 3.347s-1.504 3.347-3.365 3.347h-8.438z"/>
    </symbol>
    <symbol id="wordpress" viewBox="0 0 141 32">
      <path fill="#fff" style="fill:var(--color2, #fff)" opacity=".2" d="M81.83 12.506h-5.554v.585c1.737 0 2.017.369 2.017 2.556v3.942c0 2.186-.279 2.587-2.017 2.587-1.334-.185-2.233-.893-3.475-2.248l-1.427-1.54c1.923-.339 2.947-1.54 2.947-2.895 0-1.693-1.457-2.987-4.188-2.987h-5.461v.585c1.737 0 2.017.369 2.017 2.556v3.942c0 2.186-.279 2.587-2.017 2.587v.585h6.174v-.585c-1.737 0-2.016-.4-2.016-2.587v-1.108h.527l3.444 4.28h9.029c4.437 0 6.361-2.34 6.361-5.143s-1.924-5.112-6.361-5.112zm-13 5.02v-4.095h1.272c1.396 0 2.017.955 2.017 2.063 0 1.078-.621 2.032-2.017 2.032H68.83zm13.093 4.281h-.217c-1.116 0-1.271-.277-1.271-1.694V13.43h1.489c3.227 0 3.816 2.34 3.816 4.157 0 1.878-.589 4.219-3.816 4.219zM47.39 18.666l2.141-6.283c.621-1.817.341-2.34-1.644-2.34v-.616h5.833v.616c-1.955 0-2.42.462-3.196 2.71l-3.538 10.532h-.403l-3.165-9.639-3.227 9.639h-.403l-3.444-10.532c-.745-2.248-1.241-2.71-3.041-2.71v-.616h6.888v.616c-1.831 0-2.328.431-1.675 2.34l2.079 6.282 3.134-9.239h.59l3.072 9.239zm10.549 4.495c-3.413 0-6.205-2.494-6.205-5.543 0-3.018 2.793-5.512 6.205-5.512s6.205 2.495 6.205 5.512c0 3.049-2.792 5.543-6.205 5.543zm0-10.1c-2.854 0-3.847 2.556-3.847 4.557 0 2.033.993 4.558 3.847 4.558 2.886 0 3.879-2.525 3.879-4.558 0-2.002-.993-4.557-3.879-4.557zM95.854 22.145v.616h-7.105v-.616c2.079 0 2.452-.523 2.452-3.603v-4.927c0-3.08-.372-3.572-2.452-3.572v-.616h6.423c3.196 0 4.964 1.632 4.964 3.819 0 2.125-1.769 3.788-4.964 3.788h-1.769v1.508c0 3.08.372 3.604 2.452 3.604zm-.683-11.61h-1.769v5.359h1.769c1.737 0 2.545-1.201 2.545-2.648 0-1.478-.807-2.71-2.545-2.71zm26.28 9.331-.155.554c-.279 1.016-.621 1.386-2.824 1.386h-.435c-1.612 0-1.892-.37-1.892-2.556v-1.417c2.42 0 2.607.215 2.607 1.817h.59v-4.589h-.59c0 1.601-.186 1.817-2.607 1.817v-3.449h1.706c2.204 0 2.545.37 2.824 1.386l.156.585h.496l-.217-2.895h-9.123v.585c1.737 0 2.017.369 2.017 2.556v3.942c0 2-.238 2.504-1.607 2.576-1.302-.197-2.196-.902-3.419-2.237l-1.428-1.54c1.924-.339 2.948-1.54 2.948-2.895 0-1.693-1.459-2.987-4.189-2.987h-5.46v.585c1.737 0 2.017.369 2.017 2.556v3.942c0 2.186-.279 2.587-2.017 2.587v.585h6.175v-.585c-1.737 0-2.017-.4-2.017-2.587V18.48h.527l3.444 4.28h12.752l.187-2.894h-.466zm-16.444-2.34v-4.095h1.272c1.396 0 2.017.955 2.017 2.063 0 1.078-.621 2.032-2.017 2.032h-1.272zm22.742 5.635c-1.241 0-2.327-.647-2.793-1.047-.155.154-.434.616-.496 1.047h-.59v-4.249h.621c.248 2.032 1.675 3.233 3.506 3.233.993 0 1.799-.554 1.799-1.478 0-.8-.713-1.417-1.985-2.001l-1.769-.831c-1.241-.586-2.172-1.602-2.172-2.957 0-1.478 1.396-2.741 3.32-2.741 1.025 0 1.892.37 2.42.801.155-.123.311-.462.404-.832h.59v3.635h-.652c-.218-1.448-1.024-2.649-2.668-2.649-.869 0-1.676.493-1.676 1.263 0 .8.652 1.231 2.142 1.909l1.705.831c1.49.708 2.079 1.848 2.079 2.772 0 1.94-1.707 3.295-3.785 3.295zm9.556 0c-1.241 0-2.327-.647-2.793-1.047-.155.154-.434.616-.496 1.047h-.589v-4.249h.62c.248 2.032 1.676 3.233 3.506 3.233.993 0 1.8-.554 1.8-1.478 0-.8-.713-1.417-1.986-2.001l-1.769-.831c-1.241-.586-2.172-1.602-2.172-2.957 0-1.478 1.396-2.741 3.32-2.741 1.024 0 1.892.37 2.42.801.155-.123.31-.462.403-.832h.59v3.635h-.652c-.217-1.448-1.024-2.649-2.668-2.649-.868 0-1.676.493-1.676 1.263 0 .8.652 1.231 2.141 1.909l1.706.831c1.489.708 2.079 1.848 2.079 2.772 0 1.94-1.706 3.295-3.785 3.295zM2.275 15.886c0 5.395 3.159 10.056 7.739 12.266L3.464 10.34a13.501 13.501 0 0 0-1.189 5.547zm23.001-.688c0-1.684-.61-2.851-1.133-3.759-.696-1.122-1.348-2.073-1.348-3.196 0-1.253.957-2.419 2.306-2.419.061 0 .118.008.178.011a13.74 13.74 0 0 0-9.273-3.577A13.743 13.743 0 0 0 4.533 8.401c.322.009.626.016.884.016 1.436 0 3.66-.173 3.66-.173.74-.043.827 1.036.088 1.123 0 0-.744.087-1.572.13l5 14.762 3.005-8.945-2.139-5.817c-.739-.043-1.44-.13-1.44-.13-.74-.043-.653-1.166.086-1.122 0 0 2.268.173 3.617.173 1.436 0 3.66-.173 3.66-.173.74-.043.828 1.035.088 1.122 0 0-.745.087-1.572.13l4.962 14.65 1.37-4.543c.594-1.885 1.046-3.239 1.046-4.405zm-9.029 1.88-4.12 11.882a13.836 13.836 0 0 0 8.439-.218 1.198 1.198 0 0 1-.098-.188l-4.221-11.477zm11.808-7.73c.059.434.093.9.093 1.401 0 1.383-.26 2.937-1.044 4.881L22.91 27.666c4.082-2.363 6.828-6.752 6.828-11.78 0-2.37-.61-4.598-1.682-6.539zM16.006 0C7.18 0 0 7.126 0 15.886c0 8.761 7.181 15.887 16.006 15.887s16.007-7.126 16.007-15.887C32.013 7.126 24.831 0 16.006 0zm0 31.045c-8.421 0-15.273-6.8-15.273-15.159S7.584.728 16.006.728c8.421 0 15.272 6.8 15.272 15.158s-6.851 15.159-15.272 15.159z"/>
    </symbol>
  </defs>
</svg>
