<svg width="37" height="36" viewBox="0 0 37 36" fill="none" xmlns="http://www.w3.org/2000/svg">
<path d="M29.9495 11.9956C29.969 12.2581 29.969 12.5191 29.969 12.7801C29.969 20.7676 23.8895 29.9716 12.779 29.9716C9.356 29.9716 6.176 28.9801 3.5 27.2581C3.986 27.3136 4.454 27.3331 4.9595 27.3331C7.67899 27.3396 10.3215 26.4303 12.461 24.7516C11.2001 24.7287 9.97786 24.3128 8.96486 23.5617C7.95185 22.8106 7.19868 21.7619 6.8105 20.5621C7.184 20.6176 7.559 20.6551 7.952 20.6551C8.4935 20.6551 9.038 20.5801 9.5435 20.4496C8.17514 20.1733 6.94471 19.4316 6.06143 18.3506C5.17815 17.2696 4.69654 15.916 4.6985 14.5201V14.4451C5.504 14.8936 6.4385 15.1741 7.4285 15.2116C6.59913 14.6604 5.91908 13.9126 5.44901 13.0348C4.97894 12.1569 4.73347 11.1763 4.7345 10.1806C4.7345 9.05857 5.033 8.02957 5.5565 7.13257C7.07471 9.0001 8.96825 10.5279 11.1145 11.6171C13.2608 12.7062 15.6118 13.3324 18.0155 13.4551C17.9225 13.0051 17.8655 12.5386 17.8655 12.0706C17.8651 11.277 18.0211 10.4912 18.3246 9.75793C18.6281 9.0247 19.0732 8.35848 19.6343 7.79735C20.1954 7.23622 20.8616 6.79118 21.5949 6.48768C22.3281 6.18418 23.1139 6.02817 23.9075 6.02857C25.6475 6.02857 27.218 6.75756 28.322 7.93657C29.6747 7.67499 30.9718 7.1812 32.156 6.47706C31.7051 7.87329 30.7606 9.05722 29.4995 9.80707C30.6992 9.67023 31.8717 9.35474 32.978 8.87107C32.1517 10.0757 31.1278 11.1321 29.9495 11.9956Z" fill="white" fill-opacity="0.78"/>
</svg>
